M48
;FILE_FORMAT=3:3
METRIC,000.000
;TYPE=PLATED
T01C0.500
T03C0.900
T04C1.000
T05C1.100
T08C1.600
T10C2.500
;TYPE=NON_PLATED
T02C0.600
T06C1.200
T07C1.500
T09C1.800
%
T01
X+018850Y+418050
X+021550Y+424850
Y+440350
X+018850Y+444450
X+023850Y+408450
X+027650Y+418450
X+025950Y+424300
X+027650Y+443650
X+025750Y+445850
X+026400Y+443650
X+026750Y+451250
X+033050Y+407650
X+032250Y+414850
X+037250Y+416650
X+035850Y+416850
X+032250Y+421650
Y+424050
X+036850Y+422450
X+032250Y+422850
Y+431050
X+032850Y+428650
X+037250Y+430900
X+031600Y+433700
X+032250Y+437250
Y+439650
X+032850Y+435850
X+037350Y+442950
X+032550Y+451850
X+036050Y+458650
X+033650
X+035650Y+460950
X+036450Y+461750
X+042850Y+412250
X+041650Y+416650
X+039450Y+413650
X+044050Y+421050
X+044850Y+420050
X+043250Y+422050
X+043050Y+423450
X+039450Y+420650
X+043450Y+431050
X+042650Y+432050
X+044550Y+431650
X+044850Y+439650
X+040800Y+440050
X+041900Y+436050
X+042250Y+445350
X+039750Y+445550
X+044700Y+447950
X+042600Y+453500
X+043450Y+458650
X+047850Y+406650
X+051050Y+413050
X+047850Y+415450
X+051450Y+414250
X+046450Y+417450
X+047450Y+420450
X+048650Y+421650
X+049850Y+422850
X+048850Y+420050
X+050850Y+422050
X+047450Y+432050
X+051650Y+433250
X+052450Y+430050
Y+431650
Y+428450
X+050250Y+432050
X+049250Y+431250
X+051350Y+436050
X+047150Y+437350
X+049250Y+438050
X+050250Y+447950
X+047550
X+051250Y+443850
X+048850Y+453450
X+048350Y+450650
X+048850Y+458650
X+048450Y+460650
X+057650Y+410250
X+058850
X+054650
X+060250Y+417050
X+054450Y+416850
X+060250Y+414650
X+057050
X+055450Y+415050
X+054250
X+055850Y+425250
X+054850Y+424850
Y+422050
X+059850Y+427450
Y+431850
X+058250
X+056650
X+059850Y+430650
X+058250
X+056650
X+056050Y+438250
X+055450Y+439450
X+054450Y+443650
X+055850Y+443550
X+057350
X+056750Y+446450
X+063650Y+410250
X+066250Y+417250
X+065050
X+063850
X+061850Y+418050
X+062650Y+417050
X+066250Y+425050
Y+422850
X+065050Y+425050
X+063850Y+422850
X+065050
X+063850Y+420450
X+064250Y+424050
X+062650Y+427450
X+064650Y+430650
X+066250
Y+431850
X+063050
Y+430650
X+064650Y+431850
X+063450Y+455450
X+061850Y+454250
X+067650Y+460050
X+066250Y+458050
X+063250Y+459250
X+061650Y+462050
X+072850Y+406250
X+070450Y+405050
X+073850Y+413850
X+073650Y+412650
X+070250Y+419850
X+071450
X+070050Y+430650
X+071250Y+431050
X+073450Y+427850
X+073850Y+429450
Y+430650
X+074250Y+431850
X+069250Y+429650
X+072450Y+454250
X+074150
X+081450Y+405850
X+081050Y+408450
X+080050Y+407650
X+082050Y+409450
X+082250Y+414050
X+077050
X+077250Y+415850
X+078050Y+414850
X+082650Y+418050
X+080650Y+416950
Y+413650
X+077650Y+423650
X+078250Y+424850
X+077050Y+430250
X+078250Y+430850
Y+436250
X+080250Y+444850
X+078650Y+451850
X+080250Y+450450
X+080050Y+453250
X+080250Y+456250
X+081450Y+460650
X+082450Y+461450
X+078450Y+463050
X+079650
X+078650Y+458250
X+077050Y+461650
X+079450Y+460650
X+080250Y+459450
X+085650Y+406250
X+086850Y+406650
X+088650Y+407050
X+089850Y+407250
X+084450Y+408850
Y+406250
X+090050Y+418250
X+087650Y+414050
X+085850
X+088850Y+416950
X+084850Y+415650
X+089850Y+413950
X+087250Y+420450
X+086450Y+421250
X+090050Y+422650
X+089250Y+423450
X+085850Y+423050
X+088850Y+425250
X+085850Y+431650
X+087050Y+431250
X+090250Y+431450
X+084850Y+436050
X+086850
X+087850Y+435250
X+089050Y+435050
X+085050Y+446050
Y+444050
Y+448050
X+089850Y+454650
X+084850Y+456050
Y+452850
Y+454450
X+086250Y+459850
X+088450Y+459050
X+087250
X+098250Y+409650
X+092250Y+407650
X+093450Y+408050
X+094650Y+408450
X+095850Y+408850
X+097050Y+409250
X+098250Y+404650
X+094850Y+416850
Y+415650
Y+413650
X+093650
X+094850Y+420450
X+092850Y+425850
X+095050Y+422250
X+098450Y+421650
X+093150Y+431350
X+092450Y+430650
X+096850Y+432250
X+097550Y+432950
X+095850Y+433250
X+092250Y+441250
X+096250Y+445250
X+095450Y+446250
X+092050Y+442850
Y+446050
Y+444450
X+092450Y+454850
Y+453250
Y+451650
X+097450Y+452650
X+098050Y+461250
X+100850Y+404650
X+100250Y+417450
X+104850Y+414050
X+103650Y+413650
X+106050Y+414050
X+100050Y+420250
X+101050Y+425650
X+100250Y+421650
X+105850Y+423050
X+101250Y+420850
X+102050Y+428050
X+103050Y+428850
X+102650Y+430050
X+101450
X+101050Y+431250
X+099850
Y+430050
X+104850Y+444850
X+101650
X+104850Y+443250
Y+446850
X+100050Y+444850
X+106050Y+443650
Y+445250
Y+446850
X+100650Y+452650
X+101650
X+105650Y+452450
X+105450Y+455650
Y+454050
X+100450Y+461250
X+105250
X+111850Y+407250
X+113050
X+108450Y+415250
X+108850Y+423050
Y+424450
X+112650Y+445450
Y+443850
X+108650
X+112650Y+447050
X+113650Y+443050
Y+446250
Y+444650
X+112250Y+451650
X+113250Y+452450
X+112250Y+453250
X+113050Y+454250
X+111850Y+454850
X+107650Y+456450
X+113650Y+450650
X+109850Y+463450
X+111050Y+463050
X+118650Y+408050
X+117650
X+115450Y+407650
X+120250Y+405850
X+118850Y+406850
X+116050Y+404850
X+120650Y+417850
X+119450
X+116850Y+412650
X+115650Y+413050
X+118450Y+420650
X+120850
X+115850Y+432850
X+119450Y+441250
X+120650
X+116850
X+117850Y+445850
X+116850Y+446650
X+117850Y+447450
X+116850Y+448250
Y+442850
X+119450
X+116850Y+451650
X+118850Y+460450
X+120850Y+458450
X+120050Y+461650
X+116650Y+461250
X+125050Y+409050
X+128450Y+407850
X+124850Y+406850
X+124450Y+415050
X+124650Y+418050
X+128050Y+413250
X+127850Y+415250
X+126650Y+414850
X+122850Y+417850
X+126650Y+425250
X+124050Y+420250
X+125850Y+429250
X+124650Y+428850
X+125850Y+427650
X+127450Y+440450
X+126050Y+438450
X+128650Y+440050
X+128050Y+438050
X+127250Y+436050
X+125650Y+436450
X+122650Y+440250
Y+444050
Y+445250
Y+446450
Y+447650
Y+442850
X+128850Y+454850
X+126450Y+457850
X+124850
X+123250
X+136450Y+408850
X+130850Y+417450
X+133050Y+424450
X+133850Y+425450
X+134650Y+423650
X+136050Y+421050
X+135050Y+422450
X+136250Y+422650
X+136050Y+430450
X+135250Y+429450
X+134450Y+430450
X+133650Y+429450
X+132050Y+431450
Y+440250
Y+438850
X+136050Y+439650
X+135850Y+443450
X+132050Y+443850
Y+445050
X+135850
X+132050Y+446250
Y+447650
X+136250Y+448650
Y+447450
X+132050Y+442650
X+144050Y+410050
X+139450Y+405300
X+138450Y+416050
X+142250Y+417450
Y+415250
X+144050Y+418450
X+140050Y+421050
X+141450Y+424050
X+141650Y+440850
X+140050Y+439450
X+138850Y+438850
X+143650Y+443850
Y+448650
X+139650Y+444650
X+142450Y+447450
X+140450Y+447250
X+143850Y+442650
X+139050Y+453850
X+140250
Y+455450
X+141650Y+456450
X+142850Y+455650
X+139250Y+450450
X+140450
X+141050Y+451650
X+142250
X+141650Y+450450
X+137850Y+454250
Y+452650
X+138050Y+459650
X+139250
Y+460850
X+138050
X+150250Y+407850
X+146650Y+410050
X+148650Y+425050
X+147850Y+426050
X+146450Y+431850
X+145450Y+432850
X+151050Y+447050
X+150250Y+446050
X+149250Y+447650
X+149850Y+444250
X+149250Y+442650
X+146650Y+450850
X+157650Y+407850
X+153850Y+410050
X+153250Y+447450
X+153050Y+463450
X+161450Y+410050
X+162650Y+428450
X+029850Y+418850
X+023850Y+442250
X+026750Y+456650
X+032250Y+442050
X+041650Y+418650
X+040850Y+419650
X+040050Y+418650
X+039650Y+411850
X+043850Y+411250
X+044950Y+442050
X+049850Y+419250
X+051050
X+048650Y+418850
X+055650Y+426850
X+057650Y+411450
X+060050Y+419250
X+058050Y+426650
X+054150Y+419550
X+056050Y+411250
X+060050Y+411450
X+054850Y+442350
X+056450Y+442450
X+067050Y+427050
X+065850Y+426650
X+064650Y+426250
X+063850Y+419250
X+065050
X+066250
X+066450Y+411250
X+065250
X+063650Y+411450
X+062050Y+411050
X+075250Y+412050
X+071150Y+449850
X+081450Y+419650
X+076850Y+434650
X+089250Y+419050
X+084650Y+434850
X+094850Y+419250
X+102050Y+426450
X+103050Y+427250
X+100450Y+419050
X+105850Y+442450
X+112650Y+442250
X+119250Y+412050
X+117850Y+449250
X+116850Y+450050
X+123050Y+412050
X+127250
X+124650Y+427250
X+128250Y+418650
X+127050
X+125850
X+127250Y+456850
X+125650
X+124050
X+122650Y+449050
Y+441450
X+126050Y+442050
X+127450
X+135050Y+427050
X+133850
X+132050Y+441450
X+135650Y+441650
X+131050Y+450050
X+130250Y+449050
X+141850Y+419450
X+144050Y+441450
X+141250Y+434050
X+140050
X+142850Y+457050
X+141050Y+449250
X+139850
X+147850Y+418650
X+149050
X+145450Y+434050
X+154450Y+418850
X+153050
X+162650Y+427050
X+060850Y+410450
X+053450Y+413450
X+046250Y+415450
X+061450Y+414650
X+053650Y+412250
X+038150Y+415050
X+061050Y+421050
X+038250Y+424850
X+038450Y+422050
X+037850Y+423250
X+038250Y+426050
X+061450Y+431850
X+061150Y+427450
X+053650Y+430050
X+053050Y+433250
X+053650Y+428450
X+061450Y+430650
X+053650Y+431650
X+045450Y+430850
X+038350Y+440350
X+045950Y+437350
X+038250Y+443850
X+045750Y+443050
X+046250Y+448000
X+037650Y+460650
X+083250Y+405850
X+091050Y+407650
X+084050Y+414050
X+091450Y+418050
X+090950Y+413950
X+091450Y+424550
X+083950Y+420350
X+091450Y+422450
X+083850Y+422650
X+076450Y+432250
X+083850Y+446050
Y+447250
X+084050Y+448850
X+083850Y+444450
X+090850Y+444850
Y+443250
Y+446450
X+091250Y+451250
Y+455250
X+083650Y+452450
Y+454050
Y+455650
X+091450Y+454050
X+091250Y+452450
X+083450Y+458450
Y+459650
X+083650Y+461650
X+099650Y+404650
X+114850Y+404850
X+114250Y+407650
X+098850Y+416450
X+107250Y+415250
Y+414050
Y+421850
X+099450Y+422650
X+107250Y+423050
Y+424450
X+098850Y+424250
X+098650Y+430050
X+114650Y+432450
X+098650Y+431250
X+099650Y+446250
X+107050Y+446050
Y+447650
X+098650Y+452650
X+106650Y+453250
X+106450Y+456450
Y+454850
X+121650Y+457850
X+129850Y+407850
X+136800Y+405200
X+129050Y+414050
X+144450Y+420250
X+137650Y+428050
X+130050Y+430450
X+137650Y+433650
X+129450Y+439050
X+129250Y+436850
X+136650Y+440850
X+136850Y+444250
Y+445850
X+137450Y+448650
Y+447450
X+136850Y+453450
X+129850Y+454250
X+137250Y+450250
X+129250Y+462250
X+151850Y+463050
X+136850Y+459650
Y+460850
X+045850Y+419250
X+038350Y+441550
X+091050Y+441650
X+083450Y+457250
X+114250Y+412050
X+121850
X+099250Y+418650
X+122450Y+456850
X+129650Y+418650
X+136850Y+442450
X+129450Y+457650
Y+450050
T02
X+056650Y+403450
X+057650
X+058650
X+059650
T03
X+053120Y+450250
X+050580
X+045520
X+042980
X+073710Y+409350
X+076250
X+045450Y+428250
Y+423170
X+148050Y+457850
X+146780Y+459755
X+148050Y+461660
X+064930Y+445050
X+067470
X+059850
X+067470Y+452670
X+064930
X+059850
X+062390Y+445050
Y+452670
T04
X+131450Y+412450
Y+414990
X+036050Y+413650
Y+411110
X+025890
Y+413650
X+028430
Y+411110
X+030970Y+413650
Y+411110
X+033510Y+413650
Y+411110
X+148170Y+436350
Y+438890
X+150710Y+436350
Y+438890
X+148170Y+446510
Y+443970
X+150710Y+451590
X+148170
X+155790Y+436350
X+158330Y+438890
X+155790
X+158330Y+443970
X+155790
X+158330Y+446510
X+155790
Y+451590
X+150710Y+449050
X+148170
Y+441430
X+158330
X+155790
X+158330Y+449050
X+155790
X+145630Y+438890
X+153250Y+436350
Y+438890
X+145630Y+446510
Y+443970
X+153250Y+451590
X+145630Y+449050
Y+441430
X+153250Y+449050
X+161050Y+457850
Y+462422
X+154446Y+457850
Y+462422
T05
X+025850Y+462050
X+028390
X+033470
X+030930
T06
X+019350Y+437530
Y+429550
T07
X+018690Y+448450
Y+458450
X+023690Y+453450
T08
X+023690Y+448450
Y+450950
Y+455950
Y+458450
X+018650Y+453450
T09
X+031850Y+443900
Y+418600
T10
X+018650Y+462050
Y+410250
T00
M30
